<?xml version="1.0" encoding="UTF-8"?>
<svg version="1.1" xmlns="http://www.w3.org/2000/svg" width="96" height="80">
<path d="M0 0 C2.39561646 1.07498997 4.71753263 2.18362768 7.05078125 3.37890625 C8.03899117 3.87619484 8.03899117 3.87619484 9.04716492 4.38352966 C11.13850906 5.43755842 13.22551046 6.4998795 15.3125 7.5625 C16.73474694 8.28115158 18.1572702 8.99925659 19.58007812 9.71679688 C23.05717712 11.47055234 26.52827275 13.23547074 30 15 C30 25.56 30 36.12 30 47 C14.26843367 55.06632721 14.26843367 55.06632721 7.54296875 58.47265625 C2.95479932 60.79662425 -1.63086832 63.12479924 -6.20361328 65.47900391 C-9.89069243 67.37689303 -13.58721771 69.25503563 -17.2910881 71.11993027 C-18.70201501 71.83462835 -20.10940381 72.5563562 -21.5130806 73.28519058 C-23.48107768 74.30551995 -25.4602125 75.30005013 -27.44384766 76.28955078 C-29.12929184 77.14892746 -29.12929184 77.14892746 -30.8487854 78.02566528 C-36.53593901 79.78409557 -41.00300535 76.6186507 -46.01953125 73.99609375 C-47.12361328 73.42052734 -48.22769531 72.84496094 -49.36523438 72.25195312 C-50.50283203 71.65318359 -51.64042969 71.05441406 -52.8125 70.4375 C-53.96943359 69.83486328 -55.12636719 69.23222656 -56.31835938 68.61132812 C-64.85498768 64.14501232 -64.85498768 64.14501232 -66 63 C-66.08847743 60.47905924 -66.11527301 57.98569107 -66.09765625 55.46484375 C-66.0962413 54.71159317 -66.09482635 53.95834259 -66.09336853 53.18226624 C-66.08775376 50.7673044 -66.07519883 48.35243399 -66.0625 45.9375 C-66.0574869 44.30403779 -66.05292366 42.67057414 -66.04882812 41.03710938 C-66.03777954 37.02470415 -66.02050506 33.01236759 -66 29 C-53.893789 22.39525681 -41.56869742 16.37214109 -29.0300293 10.6394043 C-21.74491322 7.30241571 -14.58686221 3.83918625 -7.56640625 -0.0234375 C-4.39584554 -1.22989135 -3.25347072 -0.90364663 0 0 Z " fill="#000000" transform="translate(66,1)"/>
<path d="M0 0 C1.59521484 0.80244141 1.59521484 0.80244141 3.22265625 1.62109375 C4.31707031 2.17667969 5.41148438 2.73226562 6.5390625 3.3046875 C7.65667969 3.86800781 8.77429688 4.43132813 9.92578125 5.01171875 C12.6737234 6.39743317 15.4197223 7.78685697 18.1640625 9.1796875 C15.70566299 11.96288349 13.07345342 13.42908733 9.77807617 15.10644531 C8.67650681 15.67002747 7.57493744 16.23360962 6.43998718 16.81427002 C5.23764012 17.42105542 4.03498023 18.02722128 2.83203125 18.6328125 C1.59512849 19.25862726 0.3582566 19.88450301 -0.87858582 20.51043701 C-3.46961748 21.81943284 -6.06328089 23.12305093 -8.65844727 24.42382812 C-11.97814837 26.08911714 -15.28718991 27.77451256 -18.59410572 29.46501541 C-21.14438945 30.76437326 -23.70176671 32.04925226 -26.26129723 33.33028412 C-27.48431921 33.94540456 -28.7046992 34.56580817 -29.92228127 35.1916275 C-31.6277631 36.06639279 -33.34458823 36.91893417 -35.06176758 37.77050781 C-36.03422928 38.2610968 -37.00669098 38.75168579 -38.00862122 39.25714111 C-42.448542 40.7058764 -45.63255149 39.70813092 -49.81201172 37.87280273 C-51.33592529 37.0637146 -51.33592529 37.0637146 -52.890625 36.23828125 C-53.99921875 35.65498047 -55.1078125 35.07167969 -56.25 34.47070312 C-57.39210938 33.85904297 -58.53421875 33.24738281 -59.7109375 32.6171875 C-60.87625 32.00166016 -62.0415625 31.38613281 -63.2421875 30.75195312 C-66.11083847 29.23533028 -68.97513906 27.71105608 -71.8359375 26.1796875 C-68.82776562 23.78938447 -65.75223114 21.99035091 -62.33642578 20.23706055 C-61.23493195 19.6702507 -60.13343811 19.10344086 -58.99856567 18.51945496 C-57.80147354 17.90942511 -56.60402603 17.30009219 -55.40625 16.69140625 C-54.7995837 16.38274942 -54.1929174 16.0740926 -53.56786728 15.75608253 C-50.36050108 14.12576041 -47.15026753 12.50123326 -43.93798828 10.88061523 C-41.2843906 9.54044486 -38.63710113 8.18887655 -35.99462891 6.8269043 C-32.79578832 5.17818506 -29.58758618 3.54929848 -26.37163925 1.93421364 C-25.15061789 1.31699356 -23.93300828 0.69297451 -22.71902847 0.06201744 C-21.02035424 -0.81894908 -19.3075108 -1.67242969 -17.59423828 -2.5246582 C-16.62479279 -3.0174678 -15.65534729 -3.5102774 -14.65652466 -4.01802063 C-9.32531104 -5.5344387 -4.71582409 -2.38326594 0 0 Z " fill="#E8D3F8" transform="translate(73.8359375,36.8203125)"/>
<path d="M0 0 C0 8.91 0 17.82 0 27 C-12.41841256 33.58282614 -24.8909781 40.02586173 -37.46826172 46.29931641 C-40.18740357 47.6561387 -42.90430956 49.01737029 -45.62109375 50.37890625 C-47.35403804 51.24504906 -49.08710593 52.11094464 -50.8203125 52.9765625 C-51.63049835 53.38266754 -52.4406842 53.78877258 -53.27542114 54.20718384 C-58.88496679 57 -58.88496679 57 -60 57 C-60 47.43 -60 37.86 -60 28 C-54.7941998 25.45787303 -49.58805824 22.91646736 -44.38110352 20.37670898 C-42.61919415 19.51707352 -40.85746785 18.65706272 -39.09594727 17.79663086 C-29.52409051 13.12149419 -19.9424387 8.46654231 -10.33203125 3.87109375 C-9.52263596 3.48075455 -8.71324066 3.09041534 -7.87931824 2.68824768 C-2.2309673 0 -2.2309673 0 0 0 Z " fill="#D6F0F8" transform="translate(62,3)"/>
<path d="M0 0 C4.3621875 2.041875 4.3621875 2.041875 8.8125 4.125 C9.70428955 4.54023926 10.5960791 4.95547852 11.51489258 5.38330078 C17.84565141 8.36530413 23.8254858 11.63208317 30 15 C30 23.91 30 32.82 30 42 C27.091875 40.63875 24.18375 39.2775 21.1875 37.875 C19.84981567 37.25214111 19.84981567 37.25214111 18.48510742 36.61669922 C12.15434859 33.63469587 6.1745142 30.36791683 0 27 C0 18.09 0 9.18 0 0 Z " fill="#FFFFFF" transform="translate(64,3)"/>
</svg>
